<?xml version="1.0" standalone="no"?>
<!DOCTYPE svg PUBLIC "-//W3C//DTD SVG 20010904//EN"
 "http://www.w3.org/TR/2001/REC-SVG-20010904/DTD/svg10.dtd">
<svg version="1.0" xmlns="http://www.w3.org/2000/svg"
 width="1500.000000pt" height="1500.000000pt" viewBox="0 0 1500.000000 1500.000000"
 preserveAspectRatio="xMidYMid meet">
<metadata>
Created by potrace 1.11, written by Peter Selinger 2001-2013
</metadata>
<g transform="translate(0.000000,1500.000000) scale(0.100000,-0.100000)"
fill="#000000" stroke="none">
<path d="M0 7500 l0 -7500 7500 0 7500 0 0 7500 0 7500 -7500 0 -7500 0 0
-7500z m5090 3565 l0 -55 -39 0 c-116 0 -368 -69 -471 -130 -73 -42 -156 -124
-186 -182 -35 -69 -49 -170 -35 -252 33 -187 197 -671 561 -1656 78 -212 145
-391 147 -398 4 -10 -111 -12 -568 -10 l-573 3 -193 510 c-319 841 -463 1214
-510 1320 -79 176 -181 368 -235 440 -70 92 -197 193 -323 255 -111 55 -189
77 -312 86 l-83 7 0 58 0 59 1410 0 1410 0 0 -55z m4010 1 l0 -53 -132 -17
c-232 -30 -403 -78 -537 -152 -202 -111 -281 -234 -251 -387 32 -164 352
-1130 629 -1901 34 -93 61 -171 61 -172 0 -2 -246 -4 -548 -4 l-548 0 -84 230
c-47 126 -87 230 -90 230 -3 0 -41 -104 -85 -230 l-80 -230 -104 0 c-94 0
-103 2 -98 18 2 9 59 184 125 388 l121 371 -118 309 c-251 655 -386 963 -492
1121 -118 174 -298 298 -529 364 -79 23 -249 49 -319 49 l-51 0 0 60 0 60
1565 0 1565 0 0 -54z m3660 -1 c0 -54 -1 -55 -29 -55 -16 0 -73 -11 -127 -25
-115 -28 -261 -99 -376 -180 -150 -106 -311 -321 -447 -595 -106 -215 -163
-361 -326 -845 -78 -231 -186 -547 -241 -702 l-99 -283 -112 0 c-62 0 -113 3
-113 6 0 3 56 180 124 393 350 1085 395 1274 400 1646 2 167 -13 206 -113 305
-42 41 -105 92 -141 113 -128 74 -327 137 -507 159 l-93 12 0 53 0 53 1100 0
1100 0 0 -55z m-2820 -3529 c0 -543 3 -696 13 -704 6 -5 40 -13 75 -17 40 -5
62 -11 59 -19 -3 -8 -72 -12 -235 -14 -195 -2 -232 0 -232 12 0 10 17 16 53
21 28 4 62 13 75 21 l22 14 0 600 0 599 -71 41 c-39 23 -69 44 -66 46 9 9 263
93 285 93 l22 1 0 -694z m890 0 c0 -543 3 -696 13 -704 6 -5 40 -13 75 -17 40
-5 62 -11 59 -19 -3 -8 -72 -12 -235 -14 -195 -2 -232 0 -232 12 0 10 17 16
53 21 28 4 62 13 75 21 l22 15 -2 601 -3 602 -62 36 c-35 19 -61 39 -60 45 4
10 248 92 280 94 16 1 17 -38 17 -693z m-3210 284 l0 -90 180 0 c99 0 180 -2
180 -5 0 -2 -12 -29 -27 -60 l-27 -55 -154 0 -153 0 3 -302 c3 -330 5 -341 64
-387 57 -45 166 -35 229 20 67 59 31 -24 -38 -88 -74 -68 -191 -91 -290 -57
-59 20 -123 88 -133 140 -4 21 -4 181 -1 356 l5 318 -75 0 c-59 0 -74 3 -71
14 4 17 285 286 299 286 5 0 9 -40 9 -90z m-957 -99 c105 -41 178 -137 201
-263 l7 -38 -320 0 -320 0 -7 -36 c-19 -104 40 -288 118 -366 141 -141 412
-123 500 32 44 77 49 32 6 -58 -30 -64 -108 -139 -181 -172 -205 -96 -458 1
-558 213 -129 277 -28 586 228 693 52 22 70 24 163 21 79 -3 120 -9 163 -26z
m2293 8 c57 -18 77 -30 129 -82 60 -61 76 -93 99 -199 l6 -28 -325 0 -325 0 0
-64 c0 -127 41 -251 109 -329 71 -80 227 -125 338 -98 69 18 139 66 169 117
25 43 44 56 44 32 0 -29 -60 -136 -98 -175 -157 -161 -411 -160 -581 2 -103
98 -158 250 -148 410 11 187 130 358 288 415 76 27 205 27 295 -1z m-4426 -8
c0 -5 -13 -12 -30 -15 -16 -3 -43 -9 -59 -12 -56 -10 -55 -17 33 -234 151
-373 180 -440 187 -433 8 9 109 269 158 406 l29 83 -29 69 c-36 85 -60 111
-110 119 -21 3 -39 11 -39 16 0 6 85 10 230 10 133 0 230 -4 230 -9 0 -5 -13
-12 -30 -15 -16 -3 -43 -9 -60 -12 -16 -3 -36 -15 -44 -26 -12 -17 -12 -27 1
-72 21 -71 80 -243 144 -419 46 -128 55 -146 66 -130 20 27 190 461 207 531
23 87 8 111 -76 126 -21 4 -38 11 -38 16 0 6 74 10 185 10 178 0 234 -10 143
-25 -57 -10 -92 -29 -116 -62 -11 -16 -90 -192 -177 -393 -171 -399 -203 -465
-224 -465 -10 0 -49 104 -125 333 -61 182 -113 332 -116 332 -3 0 -38 -89 -79
-198 -94 -248 -180 -455 -195 -464 -6 -4 -16 -2 -23 5 -7 7 -84 185 -171 397
-87 212 -170 408 -185 435 -29 57 -49 72 -107 81 -94 15 -25 24 190 24 133 0
230 -4 230 -9z m1223 -1133 c36 -92 364 -950 392 -1025 21 -57 41 -103 45
-103 7 0 62 149 291 792 l124 348 102 0 102 0 -59 -167 c-99 -285 -271 -770
-418 -1178 -120 -332 -174 -464 -361 -880 l-220 -490 -61 0 -62 0 -160 420
c-124 325 -682 1803 -842 2228 l-25 67 573 0 c450 0 575 -3 579 -12z m3953
-528 c107 -294 198 -538 202 -542 5 -5 43 92 84 214 42 123 127 368 189 546
l112 322 104 0 c80 0 104 -3 100 -12 -10 -28 -355 -1030 -481 -1398 -119 -348
-159 -449 -335 -850 l-199 -455 -50 -3 c-40 -2 -51 0 -57 15 -94 240 -414
1120 -700 1928 -124 352 -237 670 -251 708 l-24 67 556 -2 555 -3 195 -535z"/>
<path d="M6426 7705 c-73 -26 -163 -136 -191 -234 l-7 -24 198 8 c213 8 226
11 238 61 14 56 -33 148 -93 178 -43 22 -102 27 -145 11z"/>
<path d="M8749 7706 c-76 -27 -134 -88 -179 -189 -34 -74 -43 -70 178 -62 228
8 232 10 232 87 0 53 -10 79 -44 116 -44 50 -126 71 -187 48z"/>
</g>
</svg>
